<mxfile host="app.diagrams.net" modified="2022-10-06T19:35:00.812Z" agent="5.0 (Macintosh; Intel Mac OS X 10_15_7) AppleWebKit/537.36 (KHTML, like Gecko) Chrome/105.0.0.0 Safari/537.36" etag="ysHlVEIxsZTA74xR7fTw" version="20.4.0" type="github">
  <diagram id="TwwceFtrrl0UsAo8pEpV" name="Pagina-1">
    <mxGraphModel dx="1298" dy="784" grid="1" gridSize="10" guides="1" tooltips="1" connect="1" arrows="1" fold="1" page="1" pageScale="1" pageWidth="827" pageHeight="1169" math="0" shadow="0">
      <root>
        <mxCell id="0" />
        <mxCell id="1" parent="0" />
        <mxCell id="IL3Q1A1JDviLNZqy1Z-b-1" value="" style="endArrow=none;html=1;rounded=0;strokeWidth=7;fillColor=#dae8fc;strokeColor=#6c8ebf;startArrow=none;" edge="1" parent="1" source="IL3Q1A1JDviLNZqy1Z-b-12">
          <mxGeometry width="50" height="50" relative="1" as="geometry">
            <mxPoint x="200" y="360" as="sourcePoint" />
            <mxPoint x="200" y="120" as="targetPoint" />
          </mxGeometry>
        </mxCell>
        <mxCell id="IL3Q1A1JDviLNZqy1Z-b-2" value="" style="endArrow=none;html=1;rounded=0;strokeWidth=7;fillColor=#dae8fc;strokeColor=#6c8ebf;" edge="1" parent="1">
          <mxGeometry width="50" height="50" relative="1" as="geometry">
            <mxPoint x="320" y="240" as="sourcePoint" />
            <mxPoint x="80" y="240" as="targetPoint" />
          </mxGeometry>
        </mxCell>
        <mxCell id="IL3Q1A1JDviLNZqy1Z-b-3" value="Kennis en&amp;nbsp; vaardigheden&lt;br&gt;(individu)" style="text;html=1;resizable=0;autosize=1;align=center;verticalAlign=middle;points=[];fillColor=none;strokeColor=none;rounded=0;" vertex="1" parent="1">
          <mxGeometry x="125" y="45" width="160" height="40" as="geometry" />
        </mxCell>
        <mxCell id="IL3Q1A1JDviLNZqy1Z-b-4" value="Expert" style="text;html=1;resizable=0;autosize=1;align=center;verticalAlign=middle;points=[];fillColor=none;strokeColor=none;rounded=0;" vertex="1" parent="1">
          <mxGeometry x="170" y="90" width="60" height="30" as="geometry" />
        </mxCell>
        <mxCell id="IL3Q1A1JDviLNZqy1Z-b-5" value="Lerende" style="text;html=1;resizable=0;autosize=1;align=center;verticalAlign=middle;points=[];fillColor=none;strokeColor=none;rounded=0;" vertex="1" parent="1">
          <mxGeometry x="165" y="360" width="70" height="30" as="geometry" />
        </mxCell>
        <mxCell id="IL3Q1A1JDviLNZqy1Z-b-6" value="Procesmatig en flexibel" style="text;html=1;resizable=0;autosize=1;align=center;verticalAlign=middle;points=[];fillColor=none;strokeColor=none;rounded=0;" vertex="1" parent="1">
          <mxGeometry x="285" y="210" width="150" height="30" as="geometry" />
        </mxCell>
        <mxCell id="IL3Q1A1JDviLNZqy1Z-b-8" value="Organisatie niveau" style="text;html=1;resizable=0;autosize=1;align=center;verticalAlign=middle;points=[];fillColor=none;strokeColor=none;rounded=0;" vertex="1" parent="1">
          <mxGeometry x="354" y="240" width="120" height="30" as="geometry" />
        </mxCell>
        <mxCell id="IL3Q1A1JDviLNZqy1Z-b-11" value="" style="shape=flexArrow;endArrow=classic;html=1;rounded=0;strokeWidth=7;fillColor=#dae8fc;strokeColor=#6c8ebf;" edge="1" parent="1" source="IL3Q1A1JDviLNZqy1Z-b-13">
          <mxGeometry width="50" height="50" relative="1" as="geometry">
            <mxPoint x="150" y="280" as="sourcePoint" />
            <mxPoint x="290" y="170" as="targetPoint" />
          </mxGeometry>
        </mxCell>
        <mxCell id="IL3Q1A1JDviLNZqy1Z-b-13" value="RDC" style="ellipse;whiteSpace=wrap;html=1;fillColor=#dae8fc;strokeColor=#6c8ebf;" vertex="1" parent="1">
          <mxGeometry x="90" y="140" width="60" height="220" as="geometry" />
        </mxCell>
        <mxCell id="IL3Q1A1JDviLNZqy1Z-b-9" value="Adhoc en reactief" style="text;html=1;resizable=0;autosize=1;align=center;verticalAlign=middle;points=[];fillColor=none;strokeColor=none;rounded=0;" vertex="1" parent="1">
          <mxGeometry x="15" y="210" width="120" height="30" as="geometry" />
        </mxCell>
        <mxCell id="IL3Q1A1JDviLNZqy1Z-b-12" value="MB?" style="ellipse;whiteSpace=wrap;html=1;fillColor=#dae8fc;strokeColor=#6c8ebf;" vertex="1" parent="1">
          <mxGeometry x="160" y="140" width="70" height="120" as="geometry" />
        </mxCell>
        <mxCell id="IL3Q1A1JDviLNZqy1Z-b-14" value="" style="endArrow=none;html=1;rounded=0;strokeWidth=7;fillColor=#dae8fc;strokeColor=#6c8ebf;" edge="1" parent="1" target="IL3Q1A1JDviLNZqy1Z-b-12">
          <mxGeometry width="50" height="50" relative="1" as="geometry">
            <mxPoint x="200" y="360" as="sourcePoint" />
            <mxPoint x="200" y="120" as="targetPoint" />
          </mxGeometry>
        </mxCell>
        <mxCell id="IL3Q1A1JDviLNZqy1Z-b-16" value="" style="endArrow=none;html=1;rounded=0;strokeWidth=7;fillColor=#f8cecc;strokeColor=#b85450;" edge="1" parent="1">
          <mxGeometry width="50" height="50" relative="1" as="geometry">
            <mxPoint x="635" y="495" as="sourcePoint" />
            <mxPoint x="395" y="495" as="targetPoint" />
          </mxGeometry>
        </mxCell>
        <mxCell id="IL3Q1A1JDviLNZqy1Z-b-17" value="Houding&lt;br&gt;(individu)" style="text;html=1;resizable=0;autosize=1;align=center;verticalAlign=middle;points=[];fillColor=#f8cecc;strokeColor=#b85450;rounded=0;" vertex="1" parent="1">
          <mxGeometry x="485" y="300" width="70" height="40" as="geometry" />
        </mxCell>
        <mxCell id="IL3Q1A1JDviLNZqy1Z-b-18" value="Positief constructief" style="text;html=1;resizable=0;autosize=1;align=center;verticalAlign=middle;points=[];fillColor=#f8cecc;strokeColor=#b85450;rounded=0;" vertex="1" parent="1">
          <mxGeometry x="450" y="345" width="130" height="30" as="geometry" />
        </mxCell>
        <mxCell id="IL3Q1A1JDviLNZqy1Z-b-19" value="Negatief" style="text;html=1;resizable=0;autosize=1;align=center;verticalAlign=middle;points=[];fillColor=#f8cecc;strokeColor=#b85450;rounded=0;" vertex="1" parent="1">
          <mxGeometry x="480" y="615" width="70" height="30" as="geometry" />
        </mxCell>
        <mxCell id="IL3Q1A1JDviLNZqy1Z-b-20" value="Hecht" style="text;html=1;resizable=0;autosize=1;align=center;verticalAlign=middle;points=[];fillColor=#f8cecc;strokeColor=#b85450;rounded=0;" vertex="1" parent="1">
          <mxGeometry x="630" y="465" width="50" height="30" as="geometry" />
        </mxCell>
        <mxCell id="IL3Q1A1JDviLNZqy1Z-b-21" value="Team" style="text;html=1;resizable=0;autosize=1;align=center;verticalAlign=middle;points=[];fillColor=#f8cecc;strokeColor=#b85450;rounded=0;" vertex="1" parent="1">
          <mxGeometry x="690" y="480" width="50" height="30" as="geometry" />
        </mxCell>
        <mxCell id="IL3Q1A1JDviLNZqy1Z-b-22" value="" style="shape=flexArrow;endArrow=classic;html=1;rounded=0;strokeWidth=7;fillColor=#f8cecc;strokeColor=#b85450;" edge="1" parent="1" source="IL3Q1A1JDviLNZqy1Z-b-23">
          <mxGeometry width="50" height="50" relative="1" as="geometry">
            <mxPoint x="465" y="535" as="sourcePoint" />
            <mxPoint x="605" y="425" as="targetPoint" />
          </mxGeometry>
        </mxCell>
        <mxCell id="IL3Q1A1JDviLNZqy1Z-b-23" value="RDC" style="ellipse;whiteSpace=wrap;html=1;fillColor=#f8cecc;strokeColor=#b85450;" vertex="1" parent="1">
          <mxGeometry x="375" y="570" width="60" height="65" as="geometry" />
        </mxCell>
        <mxCell id="IL3Q1A1JDviLNZqy1Z-b-24" value="Los zand" style="text;html=1;resizable=0;autosize=1;align=center;verticalAlign=middle;points=[];fillColor=#f8cecc;strokeColor=#b85450;rounded=0;" vertex="1" parent="1">
          <mxGeometry x="355" y="465" width="70" height="30" as="geometry" />
        </mxCell>
        <mxCell id="IL3Q1A1JDviLNZqy1Z-b-25" value="MB?" style="ellipse;whiteSpace=wrap;html=1;fillColor=#f8cecc;strokeColor=#b85450;" vertex="1" parent="1">
          <mxGeometry x="520" y="375" width="70" height="60" as="geometry" />
        </mxCell>
        <mxCell id="IL3Q1A1JDviLNZqy1Z-b-26" value="" style="endArrow=none;html=1;rounded=0;strokeWidth=7;fillColor=#f8cecc;strokeColor=#b85450;entryX=0.483;entryY=0.983;entryDx=0;entryDy=0;entryPerimeter=0;" edge="1" parent="1" target="IL3Q1A1JDviLNZqy1Z-b-18">
          <mxGeometry width="50" height="50" relative="1" as="geometry">
            <mxPoint x="515" y="615" as="sourcePoint" />
            <mxPoint x="600" y="540" as="targetPoint" />
          </mxGeometry>
        </mxCell>
      </root>
    </mxGraphModel>
  </diagram>
</mxfile>
